# xmcd
#
# Track frame offsets: 
#        150
#        20927
#        36398
#        61912
#        92102
#        111588
#        131831
#        154545
#        172237
#        189013
#        207167
#        228703
#        255885
#        286209
#
# Disc length: 4091 seconds
#
# Revision: 1
# Processed by: cddbd v1.5.2PL0 Copyright (c) Steve Scherf et al.
# Submitted via: ExactAudioCopy v1.3
#
DISCID=c90ff90e
DTITLE=John Lee Hooker - The Best Of Friends
DYEAR=2017
DGENRE=Blues
TTITLE0=Boogie Chillen
TTITLE1=This Is Hip
TTITLE2=The Healer
TTITLE3=I Cover The Waterfront
TTITLE4=Boom Boom
TTITLE5=I'm In The Mood
TTITLE6=Burnin' Hell
TTITLE7=Topelo
TTITLE8=Baby Lee
TTITLE9=Dimples
TTITLE10=Chill Out(Things Gonna Change)
TTITLE11=Big Legs Tight  Skirt
TTITLE12=Don't Look Back
TTITLE13=Up And Down
EXTD=
EXTT0=
EXTT1=
EXTT2=
EXTT3=
EXTT4=
EXTT5=
EXTT6=
EXTT7=
EXTT8=
EXTT9=
EXTT10=
EXTT11=
EXTT12=
EXTT13=
PLAYORDER=
